<?xml version="1.0" encoding="UTF-8" standalone="no"?>
<!-- Created with Inkscape (http://www.inkscape.org/) -->

<svg
   xmlns:dc="http://purl.org/dc/elements/1.1/"
   xmlns:cc="http://creativecommons.org/ns#"
   xmlns:rdf="http://www.w3.org/1999/02/22-rdf-syntax-ns#"
   xmlns:svg="http://www.w3.org/2000/svg"
   xmlns="http://www.w3.org/2000/svg"
   xmlns:sodipodi="http://sodipodi.sourceforge.net/DTD/sodipodi-0.dtd"
   xmlns:inkscape="http://www.inkscape.org/namespaces/inkscape"
   width="240mm"
   height="75mm"
   viewBox="0 0 240 75"
   version="1.1"
   id="svg8"
   inkscape:version="0.92.4 (5da689c313, 2019-01-14)"
   sodipodi:docname="underconstruction.svg">
  <defs
     id="defs2" />
  <sodipodi:namedview
     id="base"
     pagecolor="#ffffff"
     bordercolor="#333"
     borderopacity="1.0"
     inkscape:pageopacity="0.0"
     inkscape:pageshadow="2"
     inkscape:zoom="0.98994949"
     inkscape:cx="524.9332"
     inkscape:cy="317.32851"
     inkscape:document-units="px"
     inkscape:current-layer="layer1"
     showgrid="false"
     inkscape:window-width="1920"
     inkscape:window-height="1017"
     inkscape:window-x="-8"
     inkscape:window-y="-8"
     inkscape:window-maximized="1"
     width="30mm"
     units="mm" />
  <metadata
     id="metadata5">
    <rdf:RDF>
      <cc:Work
         rdf:about="">
        <dc:format>image/svg+xml</dc:format>
        <dc:type
           rdf:resource="http://purl.org/dc/dcmitype/StillImage" />
        <dc:title />
      </cc:Work>
    </rdf:RDF>
  </metadata>
  <g
     inkscape:label="Calque 1"
     inkscape:groupmode="layer"
     id="layer1"
     transform="translate(0,-228.99999)">
    <path
       inkscape:connector-curvature="0"
       id="path815"
       style="font-style:normal;font-variant:normal;font-weight:normal;font-stretch:normal;font-size:24.7975235px;line-height:1.25;font-family:'Arial Rounded MT Bold';-inkscape-font-specification:'Arial Rounded MT Bold, Normal';font-variant-ligatures:normal;font-variant-caps:normal;font-variant-numeric:normal;font-feature-settings:normal;text-align:center;letter-spacing:0px;word-spacing:0px;writing-mode:lr-tb;text-anchor:middle;fill:#999999;fill-opacity:0.18348624;stroke:none;stroke-width:0.26458335"
       d="m 73.41352,248.45083 v -8.53626 q 0,-1.08973 0.484327,-1.6346 0.496435,-0.54487 1.295574,-0.54487 0.835463,0 1.31979,0.54487 0.496435,0.54487 0.496435,1.6346 v 8.72999 q 0,1.4893 0.32692,2.49428 0.339029,0.99287 1.1866,1.54984 0.847572,0.54487 2.373201,0.54487 2.10682,0 2.978608,-1.11395 0.871788,-1.12606 0.871788,-3.40239 v -8.80264 q 0,-1.10184 0.484327,-1.6346 0.484326,-0.54487 1.295574,-0.54487 0.811247,0 1.307681,0.54487 0.508543,0.53276 0.508543,1.6346 v 8.53626 q 0,2.0826 -0.411677,3.47504 -0.39957,1.39244 -1.525629,2.44585 -0.968653,0.896 -2.252119,1.30768 -1.283466,0.41168 -3.002825,0.41168 -2.04628,0 -3.523476,-0.43589 -1.477196,-0.44801 -2.409525,-1.36823 -0.932329,-0.93233 -1.368223,-2.3732 -0.435894,-1.45298 -0.435894,-3.46293 z" />
    <path
       inkscape:connector-curvature="0"
       id="path817"
       style="font-style:normal;font-variant:normal;font-weight:normal;font-stretch:normal;font-size:24.7975235px;line-height:1.25;font-family:'Arial Rounded MT Bold';-inkscape-font-specification:'Arial Rounded MT Bold, Normal';font-variant-ligatures:normal;font-variant-caps:normal;font-variant-numeric:normal;font-feature-settings:normal;text-align:center;letter-spacing:0px;word-spacing:0px;writing-mode:lr-tb;text-anchor:middle;fill:#999999;fill-opacity:0.18348624;stroke:none;stroke-width:0.26458335"
       d="m 96.915469,239.89035 6.913761,10.46146 v -10.55832 q 0,-1.0292 0.4359,-1.53774 0.448,-0.52065 1.1987,-0.52065 0.77493,0 1.22293,0.52065 0.448,0.50854 0.448,1.53774 v 13.96071 q 0,2.33688 -1.93731,2.33688 -0.48432,0 -0.87178,-0.1453 -0.38746,-0.13319 -0.72649,-0.43589 -0.33903,-0.30271 -0.62963,-0.70228 -0.29059,-0.41167 -0.58119,-0.83546 l -6.744248,-10.34037 v 10.40091 q 0,1.01709 -0.472219,1.53774 -0.472218,0.52065 -1.210816,0.52065 -0.762815,0 -1.222925,-0.52065 -0.46011,-0.53276 -0.46011,-1.53774 v -13.69433 q 0,-0.87179 0.19373,-1.36823 0.230055,-0.54486 0.762815,-0.88389 0.532759,-0.35114 1.150276,-0.35114 0.484326,0 0.823355,0.15741 0.351137,0.1574 0.605408,0.42378 0.26638,0.26638 0.532759,0.69017 0.278488,0.42378 0.569084,0.88389 z" />
    <path
       inkscape:connector-curvature="0"
       id="path819"
       style="font-style:normal;font-variant:normal;font-weight:normal;font-stretch:normal;font-size:24.7975235px;line-height:1.25;font-family:'Arial Rounded MT Bold';-inkscape-font-specification:'Arial Rounded MT Bold, Normal';font-variant-ligatures:normal;font-variant-caps:normal;font-variant-numeric:normal;font-feature-settings:normal;text-align:center;letter-spacing:0px;word-spacing:0px;writing-mode:lr-tb;text-anchor:middle;fill:#999999;fill-opacity:0.18348624;stroke:none;stroke-width:0.26458335"
       d="m 113.29782,238.0378 h 4.68586 q 1.82833,0 3.13601,0.33903 1.30768,0.33903 2.3732,1.27136 2.77277,2.3732 2.77277,7.21647 0,1.59828 -0.27849,2.91807 -0.27848,1.31979 -0.85968,2.3853 -0.58119,1.05341 -1.4893,1.88888 -0.71438,0.64173 -1.56195,1.02919 -0.84757,0.38746 -1.82834,0.54487 -0.96865,0.15741 -2.19157,0.15741 h -4.68586 q -0.98077,0 -1.4772,-0.2906 -0.49644,-0.3027 -0.65384,-0.83546 -0.1453,-0.54487 -0.1453,-1.40455 v -13.01628 q 0,-1.16238 0.52065,-1.68303 0.52065,-0.52066 1.68304,-0.52066 z m 1.39244,2.84542 v 12.04763 h 2.72433 q 0.89601,0 1.40455,-0.0484 0.50854,-0.0484 1.05341,-0.24217 0.54487,-0.19373 0.94444,-0.54487 1.80411,-1.52562 1.80411,-5.25494 0,-2.62747 -0.79913,-3.93515 -0.78704,-1.30768 -1.94942,-1.65882 -1.16238,-0.36325 -2.80909,-0.36325 z" />
    <path
       inkscape:connector-curvature="0"
       id="path821"
       style="font-style:normal;font-variant:normal;font-weight:normal;font-stretch:normal;font-size:24.7975235px;line-height:1.25;font-family:'Arial Rounded MT Bold';-inkscape-font-specification:'Arial Rounded MT Bold, Normal';font-variant-ligatures:normal;font-variant-caps:normal;font-variant-numeric:normal;font-feature-settings:normal;text-align:center;letter-spacing:0px;word-spacing:0px;writing-mode:lr-tb;text-anchor:middle;fill:#999999;fill-opacity:0.18348624;stroke:none;stroke-width:0.26458335"
       d="m 141.12238,240.81057 h -8.10036 v 4.35894 h 7.45863 q 0.82335,0 1.22292,0.37536 0.41168,0.36324 0.41168,0.96865 0,0.60541 -0.39957,0.99287 -0.39957,0.37535 -1.23503,0.37535 h -7.45863 v 5.04911 h 8.37885 q 0.84757,0 1.27136,0.39957 0.43589,0.38746 0.43589,1.0413 0,0.62962 -0.43589,1.02919 -0.42379,0.38747 -1.27136,0.38747 h -9.77129 q -1.17449,0 -1.69514,-0.52066 -0.50855,-0.52065 -0.50855,-1.68303 v -13.3432 q 0,-0.77492 0.23006,-1.25925 0.23005,-0.49643 0.71438,-0.71438 0.49644,-0.23006 1.25925,-0.23006 h 9.4928 q 0.85968,0 1.27136,0.38747 0.42379,0.37535 0.42379,0.99287 0,0.62962 -0.42379,1.01708 -0.41168,0.37535 -1.27136,0.37535 z" />
    <path
       inkscape:connector-curvature="0"
       id="path823"
       style="font-style:normal;font-variant:normal;font-weight:normal;font-stretch:normal;font-size:24.7975235px;line-height:1.25;font-family:'Arial Rounded MT Bold';-inkscape-font-specification:'Arial Rounded MT Bold, Normal';font-variant-ligatures:normal;font-variant-caps:normal;font-variant-numeric:normal;font-feature-settings:normal;text-align:center;letter-spacing:0px;word-spacing:0px;writing-mode:lr-tb;text-anchor:middle;fill:#999999;fill-opacity:0.18348624;stroke:none;stroke-width:0.26458335"
       d="m 150.82102,248.19656 h -1.25924 v 5.70294 q 0,1.12606 -0.49644,1.65882 -0.49643,0.53276 -1.29557,0.53276 -0.85968,0 -1.3319,-0.55698 -0.47222,-0.55697 -0.47222,-1.6346 v -13.65801 q 0,-1.16238 0.52065,-1.68303 0.52065,-0.52066 1.68304,-0.52066 h 5.84824 q 1.21082,0 2.0705,0.10898 0.85968,0.0969 1.54984,0.41168 0.83547,0.35113 1.4772,1.00497 0.64173,0.65384 0.96865,1.52563 0.33903,0.85968 0.33903,1.82834 0,1.98573 -1.12606,3.17233 -1.11395,1.1866 -3.39029,1.68304 0.95655,0.50854 1.82834,1.50141 0.87179,0.99287 1.54984,2.11893 0.69017,1.11395 1.06552,2.02206 0.38746,0.89601 0.38746,1.23504 0,0.35113 -0.23005,0.70227 -0.21795,0.33903 -0.60541,0.53276 -0.38746,0.20584 -0.89601,0.20584 -0.6054,0 -1.01708,-0.2906 -0.41168,-0.27848 -0.71438,-0.71438 -0.2906,-0.43589 -0.79914,-1.28346 l -1.44087,-2.39742 q -0.77493,-1.31979 -1.39244,-2.00996 -0.60541,-0.69016 -1.23504,-0.94443 -0.62962,-0.25427 -1.58617,-0.25427 z m 2.05839,-7.45863 h -3.31763 v 4.87959 h 3.22077 q 1.29557,0 2.17947,-0.21795 0.88389,-0.23006 1.344,-0.76282 0.47222,-0.54486 0.47222,-1.4893 0,-0.7386 -0.37535,-1.29557 -0.37535,-0.56909 -1.0413,-0.84758 -0.62963,-0.26637 -2.48218,-0.26637 z" />
    <path
       inkscape:connector-curvature="0"
       id="path825"
       style="font-style:normal;font-variant:normal;font-weight:normal;font-stretch:normal;font-size:24.7975235px;line-height:1.25;font-family:'Arial Rounded MT Bold';-inkscape-font-specification:'Arial Rounded MT Bold, Normal';font-variant-ligatures:normal;font-variant-caps:normal;font-variant-numeric:normal;font-feature-settings:normal;text-align:center;letter-spacing:0px;word-spacing:0px;writing-mode:lr-tb;text-anchor:middle;fill:#999999;fill-opacity:0.18348624;stroke:none;stroke-width:0.26458335"
       d="m 31.16813,281.1792 q 0,0.84757 -0.423786,1.84044 -0.411677,0.98076 -1.307682,1.93731 -0.896004,0.94443 -2.288443,1.53773 -1.392439,0.5933 -3.244988,0.5933 -1.404548,0 -2.554823,-0.26638 -1.150276,-0.26638 -2.094713,-0.82335 -0.932329,-0.56908 -1.71936,-1.48931 -0.702273,-0.83546 -1.198708,-1.86465 -0.496435,-1.04131 -0.750706,-2.2158 -0.242164,-1.17449 -0.242164,-2.49428 0,-2.14314 0.617517,-3.83829 0.629624,-1.69514 1.792008,-2.89385 1.162384,-1.21082 2.724338,-1.84044 1.561953,-0.62963 3.329745,-0.62963 2.155254,0 3.838289,0.85968 1.683035,0.85968 2.579039,2.13104 0.896004,1.25925 0.896004,2.38531 0,0.61752 -0.435894,1.08974 -0.435894,0.47221 -1.05341,0.47221 -0.690166,0 -1.041302,-0.32692 -0.339029,-0.32692 -0.762815,-1.12606 -0.702273,-1.31979 -1.658818,-1.97363 -0.944437,-0.65384 -2.336876,-0.65384 -2.215795,0 -3.535585,1.68304 -1.307682,1.68303 -1.307682,4.78272 0,2.0705 0.581192,3.45083 0.581192,1.36822 1.646711,2.04628 1.065518,0.67806 2.494282,0.67806 1.549845,0 2.615364,-0.76282 1.077626,-0.77492 1.622494,-2.26422 0.230055,-0.70228 0.569084,-1.13817 0.339028,-0.448 1.089735,-0.448 0.641732,0 1.101843,0.448 0.46011,0.448 0.46011,1.11395 z" />
    <path
       inkscape:connector-curvature="0"
       id="path827"
       style="font-style:normal;font-variant:normal;font-weight:normal;font-stretch:normal;font-size:24.7975235px;line-height:1.25;font-family:'Arial Rounded MT Bold';-inkscape-font-specification:'Arial Rounded MT Bold, Normal';font-variant-ligatures:normal;font-variant-caps:normal;font-variant-numeric:normal;font-feature-settings:normal;text-align:center;letter-spacing:0px;word-spacing:0px;writing-mode:lr-tb;text-anchor:middle;fill:#999999;fill-opacity:0.18348624;stroke:none;stroke-width:0.26458335"
       d="m 42.210778,268.732 q 2.760662,0 4.734293,1.12606 1.985739,1.11396 3.002825,3.18445 1.017086,2.05839 1.017086,4.84327 0,2.05839 -0.556976,3.74142 -0.556976,1.68304 -1.670927,2.91807 -1.113951,1.23503 -2.736445,1.88887 -1.622495,0.65384 -3.717207,0.65384 -2.082605,0 -3.729315,-0.66595 -1.646711,-0.67805 -2.748554,-1.90098 -1.101843,-1.22292 -1.670927,-2.94228 -0.556975,-1.71936 -0.556975,-3.71721 0,-2.04628 0.581192,-3.75353 0.5933,-1.70725 1.707251,-2.90596 1.113951,-1.19871 2.712229,-1.82833 1.598278,-0.64174 3.63245,-0.64174 z m 5.109646,9.12956 q 0,-1.94941 -0.629625,-3.37818 -0.629624,-1.42876 -1.804117,-2.15525 -1.162383,-0.7386 -2.675904,-0.7386 -1.077627,0 -1.997848,0.41168 -0.908112,0.39957 -1.574061,1.17449 -0.653841,0.77492 -1.041302,1.98574 -0.375354,1.19871 -0.375354,2.70012 0,1.51352 0.375354,2.73645 0.387461,1.22292 1.077626,2.03417 0.702274,0.79914 1.598278,1.19871 0.908113,0.39957 1.985739,0.39957 1.380331,0 2.530607,-0.69017 1.162384,-0.69016 1.840441,-2.13104 0.690166,-1.44087 0.690166,-3.54769 z" />
    <path
       inkscape:connector-curvature="0"
       id="path829"
       style="font-style:normal;font-variant:normal;font-weight:normal;font-stretch:normal;font-size:24.7975235px;line-height:1.25;font-family:'Arial Rounded MT Bold';-inkscape-font-specification:'Arial Rounded MT Bold, Normal';font-variant-ligatures:normal;font-variant-caps:normal;font-variant-numeric:normal;font-feature-settings:normal;text-align:center;letter-spacing:0px;word-spacing:0px;writing-mode:lr-tb;text-anchor:middle;fill:#999999;fill-opacity:0.18348624;stroke:none;stroke-width:0.26458335"
       d="m 58.750533,270.88726 6.913763,10.46145 v -10.55832 q 0,-1.02919 0.435894,-1.53773 0.448002,-0.52066 1.198708,-0.52066 0.774923,0 1.222925,0.52066 0.448002,0.50854 0.448002,1.53773 v 13.96072 q 0,2.33687 -1.937307,2.33687 -0.484326,0 -0.871788,-0.14529 -0.387461,-0.13319 -0.72649,-0.4359 -0.339028,-0.3027 -0.629624,-0.70227 -0.290596,-0.41168 -0.581192,-0.83547 l -6.744248,-10.34037 v 10.40092 q 0,1.01708 -0.472219,1.53773 -0.472218,0.52065 -1.210816,0.52065 -0.762815,0 -1.222925,-0.52065 -0.460111,-0.53276 -0.460111,-1.53773 v -13.69434 q 0,-0.87179 0.193731,-1.36822 0.230055,-0.54487 0.762815,-0.8839 0.532759,-0.35114 1.150275,-0.35114 0.484327,0 0.823356,0.15741 0.351136,0.15741 0.605408,0.42379 0.26638,0.26638 0.532759,0.69016 0.278488,0.42379 0.569084,0.8839 z" />
    <path
       inkscape:connector-curvature="0"
       id="path831"
       style="font-style:normal;font-variant:normal;font-weight:normal;font-stretch:normal;font-size:24.7975235px;line-height:1.25;font-family:'Arial Rounded MT Bold';-inkscape-font-specification:'Arial Rounded MT Bold, Normal';font-variant-ligatures:normal;font-variant-caps:normal;font-variant-numeric:normal;font-feature-settings:normal;text-align:center;letter-spacing:0px;word-spacing:0px;writing-mode:lr-tb;text-anchor:middle;fill:#999999;fill-opacity:0.18348624;stroke:none;stroke-width:0.26458335"
       d="m 86.393474,281.45769 q 0,1.61038 -0.835463,2.89385 -0.823355,1.28346 -2.421633,2.00995 -1.598278,0.72649 -3.789856,0.72649 -2.627472,0 -4.334723,-0.99287 -1.210817,-0.71438 -1.973631,-1.90098 -0.750706,-1.19871 -0.750706,-2.32477 0,-0.65384 0.448002,-1.11395 0.46011,-0.47222 1.162384,-0.47222 0.569084,0 0.956545,0.36325 0.399569,0.36324 0.678057,1.07763 0.339029,0.84757 0.72649,1.41665 0.39957,0.56909 1.113951,0.94444 0.714382,0.36324 1.876766,0.36324 1.598278,0 2.591147,-0.73859 1.004978,-0.75071 1.004978,-1.86466 0,-0.8839 -0.544868,-1.42877 -0.532759,-0.55697 -1.392438,-0.84757 -0.847572,-0.29059 -2.276335,-0.61751 -1.913091,-0.44801 -3.208664,-1.04131 -1.283466,-0.6054 -2.04628,-1.6346 -0.750707,-1.0413 -0.750707,-2.57904 0,-1.46509 0.799139,-2.60325 0.799139,-1.13817 2.31266,-1.74358 1.513521,-0.61752 3.559801,-0.61752 1.634602,0 2.821202,0.41168 1.198708,0.39957 1.985739,1.07763 0.787031,0.66595 1.150276,1.40455 0.363245,0.73859 0.363245,1.44087 0,0.64173 -0.46011,1.16238 -0.448003,0.50854 -1.12606,0.50854 -0.617516,0 -0.944437,-0.3027 -0.314812,-0.31481 -0.690165,-1.01709 -0.484327,-1.00497 -1.162384,-1.56195 -0.678057,-0.56908 -2.17947,-0.56908 -1.392439,0 -2.252118,0.61751 -0.847572,0.60541 -0.847572,1.46509 0,0.53276 0.290596,0.92022 0.290596,0.38746 0.799139,0.66595 0.508543,0.27849 1.029194,0.4359 0.520651,0.1574 1.719359,0.46011 1.501413,0.35113 2.712229,0.77492 1.222925,0.42378 2.070497,1.02919 0.859679,0.60541 1.331898,1.53774 0.484326,0.92022 0.484326,2.26423 z" />
    <path
       inkscape:connector-curvature="0"
       id="path833"
       style="font-style:normal;font-variant:normal;font-weight:normal;font-stretch:normal;font-size:24.7975235px;line-height:1.25;font-family:'Arial Rounded MT Bold';-inkscape-font-specification:'Arial Rounded MT Bold, Normal';font-variant-ligatures:normal;font-variant-caps:normal;font-variant-numeric:normal;font-feature-settings:normal;text-align:center;letter-spacing:0px;word-spacing:0px;writing-mode:lr-tb;text-anchor:middle;fill:#999999;fill-opacity:0.18348624;stroke:none;stroke-width:0.26458335"
       d="m 100.99592,272.00121 h -3.923042 v 12.8952 q 0,1.11395 -0.496434,1.65881 -0.496435,0.53276 -1.283466,0.53276 -0.799139,0 -1.307682,-0.54486 -0.496435,-0.54487 -0.496435,-1.64671 v -12.8952 h -3.923045 q -0.920221,0 -1.368223,-0.39957 -0.448002,-0.41168 -0.448002,-1.07763 0,-0.69016 0.46011,-1.08973 0.472219,-0.39957 1.356115,-0.39957 h 11.430104 q 0.93233,0 1.38033,0.41168 0.46012,0.41167 0.46012,1.07762 0,0.66595 -0.46012,1.07763 -0.46011,0.39957 -1.38033,0.39957 z" />
    <path
       inkscape:connector-curvature="0"
       id="path835"
       style="font-style:normal;font-variant:normal;font-weight:normal;font-stretch:normal;font-size:24.7975235px;line-height:1.25;font-family:'Arial Rounded MT Bold';-inkscape-font-specification:'Arial Rounded MT Bold, Normal';font-variant-ligatures:normal;font-variant-caps:normal;font-variant-numeric:normal;font-feature-settings:normal;text-align:center;letter-spacing:0px;word-spacing:0px;writing-mode:lr-tb;text-anchor:middle;fill:#999999;fill-opacity:0.18348624;stroke:none;stroke-width:0.26458335"
       d="m 109.79856,279.19346 h -1.25925 v 5.70295 q 0,1.12606 -0.49643,1.65881 -0.49644,0.53276 -1.29558,0.53276 -0.85968,0 -1.3319,-0.55697 -0.47221,-0.55698 -0.47221,-1.6346 v -13.65802 q 0,-1.16238 0.52065,-1.68303 0.52065,-0.52065 1.68303,-0.52065 h 5.84825 q 1.21081,0 2.07049,0.10897 0.85968,0.0969 1.54985,0.41168 0.83546,0.35114 1.47719,1.00498 0.64174,0.65384 0.96866,1.52563 0.33902,0.85968 0.33902,1.82833 0,1.98574 -1.12605,3.17234 -1.11396,1.1866 -3.39029,1.68303 0.95654,0.50855 1.82833,1.50142 0.87179,0.99287 1.54985,2.11893 0.69016,1.11395 1.06552,2.02206 0.38746,0.896 0.38746,1.23503 0,0.35114 -0.23006,0.70228 -0.21794,0.33902 -0.60541,0.53276 -0.38746,0.20583 -0.896,0.20583 -0.60541,0 -1.01709,-0.29059 -0.41167,-0.27849 -0.71438,-0.71438 -0.29059,-0.4359 -0.79914,-1.28347 l -1.44087,-2.39742 q -0.77492,-1.31979 -1.39244,-2.00995 -0.60541,-0.69017 -1.23503,-0.94444 -0.62963,-0.25427 -1.58617,-0.25427 z m 2.05839,-7.45863 h -3.31764 v 4.87959 h 3.22077 q 1.29558,0 2.17947,-0.21795 0.8839,-0.23005 1.34401,-0.76281 0.47222,-0.54487 0.47222,-1.48931 0,-0.73859 -0.37536,-1.29557 -0.37535,-0.56908 -1.0413,-0.84757 -0.62962,-0.26638 -2.48217,-0.26638 z" />
    <path
       inkscape:connector-curvature="0"
       id="path837"
       style="font-style:normal;font-variant:normal;font-weight:normal;font-stretch:normal;font-size:24.7975235px;line-height:1.25;font-family:'Arial Rounded MT Bold';-inkscape-font-specification:'Arial Rounded MT Bold, Normal';font-variant-ligatures:normal;font-variant-caps:normal;font-variant-numeric:normal;font-feature-settings:normal;text-align:center;letter-spacing:0px;word-spacing:0px;writing-mode:lr-tb;text-anchor:middle;fill:#999999;fill-opacity:0.18348624;stroke:none;stroke-width:0.26458335"
       d="m 122.21548,279.44773 v -8.53626 q 0,-1.08973 0.48433,-1.6346 0.49643,-0.54487 1.29557,-0.54487 0.83546,0 1.31979,0.54487 0.49643,0.54487 0.49643,1.6346 v 8.72999 q 0,1.48931 0.32693,2.49428 0.33902,0.99287 1.1866,1.54985 0.84757,0.54487 2.3732,0.54487 2.10682,0 2.9786,-1.11395 0.87179,-1.12606 0.87179,-3.4024 v -8.80264 q 0,-1.10184 0.48433,-1.6346 0.48433,-0.54487 1.29557,-0.54487 0.81125,0 1.30768,0.54487 0.50855,0.53276 0.50855,1.6346 v 8.53626 q 0,2.08261 -0.41168,3.47504 -0.39957,1.39244 -1.52563,2.44585 -0.96865,0.89601 -2.25212,1.30769 -1.28346,0.41167 -3.00282,0.41167 -2.04628,0 -3.52348,-0.43589 -1.4772,-0.448 -2.40952,-1.36822 -0.93233,-0.93233 -1.36823,-2.3732 -0.43589,-1.45298 -0.43589,-3.46294 z" />
    <path
       inkscape:connector-curvature="0"
       id="path839"
       style="font-style:normal;font-variant:normal;font-weight:normal;font-stretch:normal;font-size:24.7975235px;line-height:1.25;font-family:'Arial Rounded MT Bold';-inkscape-font-specification:'Arial Rounded MT Bold, Normal';font-variant-ligatures:normal;font-variant-caps:normal;font-variant-numeric:normal;font-feature-settings:normal;text-align:center;letter-spacing:0px;word-spacing:0px;writing-mode:lr-tb;text-anchor:middle;fill:#999999;fill-opacity:0.18348624;stroke:none;stroke-width:0.26458335"
       d="m 156.17283,281.1792 q 0,0.84757 -0.42379,1.84044 -0.41167,0.98076 -1.30768,1.93731 -0.896,0.94443 -2.28844,1.53773 -1.39244,0.5933 -3.24499,0.5933 -1.40455,0 -2.55482,-0.26638 -1.15028,-0.26638 -2.09472,-0.82335 -0.93232,-0.56908 -1.71936,-1.48931 -0.70227,-0.83546 -1.1987,-1.86465 -0.49644,-1.04131 -0.75071,-2.2158 -0.24216,-1.17449 -0.24216,-2.49428 0,-2.14314 0.61751,-3.83829 0.62963,-1.69514 1.79201,-2.89385 1.16239,-1.21082 2.72434,-1.84044 1.56195,-0.62963 3.32974,-0.62963 2.15526,0 3.83829,0.85968 1.68304,0.85968 2.57904,2.13104 0.89601,1.25925 0.89601,2.38531 0,0.61752 -0.4359,1.08974 -0.43589,0.47221 -1.05341,0.47221 -0.69016,0 -1.0413,-0.32692 -0.33903,-0.32692 -0.76281,-1.12606 -0.70228,-1.31979 -1.65882,-1.97363 -0.94444,-0.65384 -2.33688,-0.65384 -2.21579,0 -3.53558,1.68304 -1.30769,1.68303 -1.30769,4.78272 0,2.0705 0.5812,3.45083 0.58119,1.36822 1.64671,2.04628 1.06552,0.67806 2.49428,0.67806 1.54984,0 2.61536,-0.76282 1.07763,-0.77492 1.6225,-2.26422 0.23005,-0.70228 0.56908,-1.13817 0.33903,-0.448 1.08974,-0.448 0.64173,0 1.10184,0.448 0.46011,0.448 0.46011,1.11395 z" />
    <path
       inkscape:connector-curvature="0"
       id="path841"
       style="font-style:normal;font-variant:normal;font-weight:normal;font-stretch:normal;font-size:24.7975235px;line-height:1.25;font-family:'Arial Rounded MT Bold';-inkscape-font-specification:'Arial Rounded MT Bold, Normal';font-variant-ligatures:normal;font-variant-caps:normal;font-variant-numeric:normal;font-feature-settings:normal;text-align:center;letter-spacing:0px;word-spacing:0px;writing-mode:lr-tb;text-anchor:middle;fill:#999999;fill-opacity:0.18348624;stroke:none;stroke-width:0.26458335"
       d="m 170.93269,272.00121 h -3.92304 v 12.8952 q 0,1.11395 -0.49644,1.65881 -0.49643,0.53276 -1.28346,0.53276 -0.79914,0 -1.30769,-0.54486 -0.49643,-0.54487 -0.49643,-1.64671 v -12.8952 h -3.92305 q -0.92022,0 -1.36822,-0.39957 -0.448,-0.41168 -0.448,-1.07763 0,-0.69016 0.46011,-1.08973 0.47222,-0.39957 1.35611,-0.39957 h 11.43011 q 0.93233,0 1.38033,0.41168 0.46011,0.41167 0.46011,1.07762 0,0.66595 -0.46011,1.07763 -0.46011,0.39957 -1.38033,0.39957 z" />
    <path
       inkscape:connector-curvature="0"
       id="path843"
       style="font-style:normal;font-variant:normal;font-weight:normal;font-stretch:normal;font-size:24.7975235px;line-height:1.25;font-family:'Arial Rounded MT Bold';-inkscape-font-specification:'Arial Rounded MT Bold, Normal';font-variant-ligatures:normal;font-variant-caps:normal;font-variant-numeric:normal;font-feature-settings:normal;text-align:center;letter-spacing:0px;word-spacing:0px;writing-mode:lr-tb;text-anchor:middle;fill:#999999;fill-opacity:0.18348624;stroke:none;stroke-width:0.26458335"
       d="m 175.04946,284.89641 v -13.98494 q 0,-1.08973 0.49643,-1.6346 0.49644,-0.54487 1.28347,-0.54487 0.81125,0 1.30768,0.54487 0.50854,0.53276 0.50854,1.6346 v 13.98494 q 0,1.10184 -0.50854,1.64671 -0.49643,0.54486 -1.30768,0.54486 -0.77492,0 -1.28347,-0.54486 -0.49643,-0.55698 -0.49643,-1.64671 z" />
    <path
       inkscape:connector-curvature="0"
       id="path845"
       style="font-style:normal;font-variant:normal;font-weight:normal;font-stretch:normal;font-size:24.7975235px;line-height:1.25;font-family:'Arial Rounded MT Bold';-inkscape-font-specification:'Arial Rounded MT Bold, Normal';font-variant-ligatures:normal;font-variant-caps:normal;font-variant-numeric:normal;font-feature-settings:normal;text-align:center;letter-spacing:0px;word-spacing:0px;writing-mode:lr-tb;text-anchor:middle;fill:#999999;fill-opacity:0.18348624;stroke:none;stroke-width:0.26458335"
       d="m 190.46317,268.732 q 2.76066,0 4.73429,1.12606 1.98574,1.11396 3.00282,3.18445 1.01709,2.05839 1.01709,4.84327 0,2.05839 -0.55697,3.74142 -0.55698,1.68304 -1.67093,2.91807 -1.11395,1.23503 -2.73645,1.88887 -1.62249,0.65384 -3.71721,0.65384 -2.0826,0 -3.72931,-0.66595 -1.64671,-0.67805 -2.74855,-1.90098 -1.10185,-1.22292 -1.67093,-2.94228 -0.55698,-1.71936 -0.55698,-3.71721 0,-2.04628 0.5812,-3.75353 0.5933,-1.70725 1.70725,-2.90596 1.11395,-1.19871 2.71223,-1.82833 1.59827,-0.64174 3.63245,-0.64174 z m 5.10964,9.12956 q 0,-1.94941 -0.62962,-3.37818 -0.62963,-1.42876 -1.80412,-2.15525 -1.16238,-0.7386 -2.6759,-0.7386 -1.07763,0 -1.99785,0.41168 -0.90811,0.39957 -1.57406,1.17449 -0.65384,0.77492 -1.04131,1.98574 -0.37535,1.19871 -0.37535,2.70012 0,1.51352 0.37535,2.73645 0.38747,1.22292 1.07763,2.03417 0.70227,0.79914 1.59828,1.19871 0.90811,0.39957 1.98574,0.39957 1.38033,0 2.53061,-0.69017 1.16238,-0.69016 1.84044,-2.13104 0.69016,-1.44087 0.69016,-3.54769 z" />
    <path
       inkscape:connector-curvature="0"
       id="path847"
       style="font-style:normal;font-variant:normal;font-weight:normal;font-stretch:normal;font-size:24.7975235px;line-height:1.25;font-family:'Arial Rounded MT Bold';-inkscape-font-specification:'Arial Rounded MT Bold, Normal';font-variant-ligatures:normal;font-variant-caps:normal;font-variant-numeric:normal;font-feature-settings:normal;text-align:center;letter-spacing:0px;word-spacing:0px;writing-mode:lr-tb;text-anchor:middle;fill:#999999;fill-opacity:0.18348624;stroke:none;stroke-width:0.26458335"
       d="m 207.00291,270.88726 6.91376,10.46145 v -10.55832 q 0,-1.02919 0.4359,-1.53773 0.448,-0.52066 1.19871,-0.52066 0.77492,0 1.22292,0.52066 0.448,0.50854 0.448,1.53773 v 13.96072 q 0,2.33687 -1.9373,2.33687 -0.48433,0 -0.87179,-0.14529 -0.38746,-0.13319 -0.72649,-0.4359 -0.33903,-0.3027 -0.62963,-0.70227 -0.29059,-0.41168 -0.58119,-0.83547 l -6.74425,-10.34037 v 10.40092 q 0,1.01708 -0.47222,1.53773 -0.47221,0.52065 -1.21081,0.52065 -0.76282,0 -1.22293,-0.52065 -0.46011,-0.53276 -0.46011,-1.53773 v -13.69434 q 0,-0.87179 0.19373,-1.36822 0.23006,-0.54487 0.76282,-0.8839 0.53276,-0.35114 1.15027,-0.35114 0.48433,0 0.82336,0.15741 0.35114,0.15741 0.60541,0.42379 0.26638,0.26638 0.53276,0.69016 0.27848,0.42379 0.56908,0.8839 z" />
  </g>
</svg>
